<svg id="Filled" height="512" viewBox="0 0 512 512" width="512" xmlns="http://www.w3.org/2000/svg"><path d="m208 328h96a128 128 0 0 1 128 128v32a0 0 0 0 1 0 0h-352a0 0 0 0 1 0 0v-32a128 128 0 0 1 128-128z" fill="#ff9494"/><circle cx="200" cy="376" fill="#cc7676" r="40"/><circle cx="312" cy="376" fill="#cc7676" r="40"/><circle cx="256" cy="440" fill="#e9eef2" r="16"/><circle cx="80" cy="224" fill="#f0c6a4" r="56"/><circle cx="432" cy="224" fill="#f0c6a4" r="56"/><rect fill="#cc7676" height="64" rx="16" width="48" x="232" y="24"/><path d="m172.6 108.821 59.4-17.821v-48l-59.4-17.821a16 16 0 0 0 -20.6 15.326v52.995a16 16 0 0 0 20.6 15.321z" fill="#ff9494"/><path d="m339.4 108.821-59.4-17.821v-48l59.4-17.821a16 16 0 0 1 20.6 15.326v52.995a16 16 0 0 1 -20.6 15.321z" fill="#ff9494"/><circle cx="256" cy="224" fill="#f7cca9" r="168"/><circle cx="184" cy="232" fill="#6a7073" r="16"/><circle cx="328" cy="232" fill="#6a7073" r="16"/><path d="m256 416a24 24 0 1 0 24 24 24.027 24.027 0 0 0 -24-24zm0 32a8 8 0 1 1 8-8 8.009 8.009 0 0 1 -8 8z"/><path d="m432 288a64 64 0 1 0 -11.642-126.934 176.785 176.785 0 0 0 -52.358-72.731v-47.835a24 24 0 0 0 -30.9-22.982l-50.273 15.082a24.038 24.038 0 0 0 -22.827-16.6h-16a24.038 24.038 0 0 0 -22.827 16.6l-50.273-15.082a24 24 0 0 0 -30.9 22.982v47.835a176.785 176.785 0 0 0 -52.358 72.731 64 64 0 1 0 0 125.868 176.4 176.4 0 0 0 37.121 58.545 135.783 135.783 0 0 0 -56.763 110.521v32a8 8 0 0 0 8 8h352a8 8 0 0 0 8-8v-32a135.783 135.783 0 0 0 -56.763-110.521 176.4 176.4 0 0 0 37.121-58.545 64.266 64.266 0 0 0 11.642 1.066zm0-112a48 48 0 1 1 -6.532 95.55 174.671 174.671 0 0 0 5.577-29.192l3.3 3.3a8 8 0 1 0 11.314-11.314l-10.346-10.344h20.687a8 8 0 0 0 0-16h-24.735a174.782 174.782 0 0 0 -5.8-31.55 48.379 48.379 0 0 1 6.535-.45zm-90.3-143.157a8 8 0 0 1 10.3 7.657v36.061a174.951 174.951 0 0 0 -64-25.637v-1.972zm-93.7-.843h16a8.009 8.009 0 0 1 8 8v8.735c-5.272-.477-10.606-.735-16-.735s-10.728.258-16 .735v-8.735a8.009 8.009 0 0 1 8-8zm-88 8.5a8 8 0 0 1 10.3-7.657l53.7 16.109v1.972a174.951 174.951 0 0 0 -64 25.637zm56 28.562v26.938a8 8 0 0 0 16 0v-30.2a160.113 160.113 0 0 1 16-1.6v31.8a8 8 0 0 0 16 0v-31.8a160.113 160.113 0 0 1 16 1.6v30.2a8 8 0 0 0 16 0v-26.938c68.931 17.807 120 80.521 120 154.938 0 88.224-71.776 160-160 160s-160-71.774-160-160c0-74.419 51.069-137.131 120-154.938zm127.99 307.317a31.987 31.987 0 0 1 -56.049 20.708 174.763 174.763 0 0 0 56.049-20.708zm-119.931 20.708a31.987 31.987 0 0 1 -56.049-20.708 174.763 174.763 0 0 0 56.049 20.708zm-144.059-125.087a48 48 0 1 1 6.532-95.55 174.782 174.782 0 0 0 -5.8 31.55h-24.732a8 8 0 0 0 0 16h20.687l-10.344 10.343a8 8 0 0 0 11.314 11.314l3.3-3.3a174.671 174.671 0 0 0 5.577 29.192 48.379 48.379 0 0 1 -6.534.451zm344 184v24h-336v-24a119.183 119.183 0 0 1 52.562-99.256q5.955 5.185 12.37 9.828a48 48 0 0 0 88.961 32.862q6.982.556 14.107.566t14.107-.566a48 48 0 0 0 88.961-32.862q6.405-4.643 12.37-9.828a119.183 119.183 0 0 1 52.562 99.256z"/><path d="m184 256a24 24 0 1 0 -24-24 24.027 24.027 0 0 0 24 24zm0-32a8 8 0 1 1 -8 8 8.009 8.009 0 0 1 8-8z"/><path d="m328 256a24 24 0 1 0 -24-24 24.027 24.027 0 0 0 24 24zm0-32a8 8 0 1 1 -8 8 8.009 8.009 0 0 1 8-8z"/><path d="m256 296a32.036 32.036 0 0 0 32-32 8 8 0 0 0 -16 0 16 16 0 0 1 -32 0 8 8 0 0 0 -16 0 32.036 32.036 0 0 0 32 32z"/></svg>