<?xml version="1.0" encoding="UTF-8"?>
<svg xmlns="http://www.w3.org/2000/svg" xmlns:xlink="http://www.w3.org/1999/xlink" width="16pt" height="15pt" viewBox="0 0 16 15" version="1.1">
<g id="surface1">
<path style=" stroke:none;fill-rule:nonzero;fill:rgb(54.901961%,26.666667%,0.784314%);fill-opacity:1;" d="M 16 8.929688 L 14.332031 7.726562 L 6.71875 7.726562 C 6.101562 6.765625 4.921875 6.046875 3.589844 6.046875 C 1.617188 6.046875 0 7.199219 0 9.074219 C 0 10.949219 1.617188 12.800781 3.589844 12.800781 C 4.921875 12.800781 6.332031 12.03125 6.972656 11.070312 L 14.332031 11.070312 Z M 16 8.929688 "/>
<path style=" stroke:none;fill-rule:nonzero;fill:rgb(100%,67.843137%,25.098039%);fill-opacity:1;" d="M 16 8.929688 L 14.332031 7.246094 L 6.71875 7.246094 C 6.101562 6.285156 4.921875 5.566406 3.589844 5.566406 C 1.617188 5.566406 0 7.101562 0 8.953125 C 0 10.804688 1.617188 12.320312 3.589844 12.320312 C 4.921875 12.320312 6.101562 11.550781 6.71875 10.589844 L 14.308594 10.589844 Z M 16 8.929688 "/>
<path style=" stroke:none;fill-rule:nonzero;fill:rgb(100%,63.921569%,24.313725%);fill-opacity:1;" d="M 0 8.976562 C 0 10.828125 1.617188 12.34375 3.589844 12.34375 C 4.921875 12.34375 6.101562 11.574219 6.71875 10.613281 L 14.308594 10.613281 L 15.972656 8.929688 L 14.308594 7.246094 L 6.71875 7.246094 C 6.101562 6.285156 4.921875 5.566406 3.589844 5.566406 "/>
<path style=" stroke:none;fill-rule:nonzero;fill:rgb(94.901961%,57.254902%,20%);fill-opacity:1;" d="M 0 8.976562 C 0 10.828125 1.617188 12.320312 3.589844 12.320312 C 4.921875 12.320312 6.101562 11.574219 6.71875 10.613281 L 14.308594 10.613281 L 15.972656 8.929688 L 14.308594 7.246094 L 6.71875 7.246094 "/>
<path style=" stroke:none;fill-rule:nonzero;fill:rgb(80.784314%,42.745098%,5.098039%);fill-opacity:1;" d="M 0 8.976562 C 0 10.828125 1.617188 12.34375 3.589844 12.34375 C 4.921875 12.34375 6.101562 11.574219 6.71875 10.613281 L 14.308594 10.613281 L 15.972656 8.929688 "/>
<path style=" stroke:none;fill-rule:nonzero;fill:rgb(80.784314%,42.745098%,5.098039%);fill-opacity:1;" d="M 3.589844 12.34375 C 4.921875 12.34375 6.101562 11.648438 6.71875 10.613281 "/>
<path style=" stroke:none;fill-rule:nonzero;fill:rgb(88.627451%,50.980392%,10.196078%);fill-opacity:1;" d="M 6.71875 10.613281 L 14.332031 10.613281 L 16 8.929688 "/>
<path style=" stroke:none;fill-rule:nonzero;fill:rgb(28.627451%,18.039216%,8.235294%);fill-opacity:1;" d="M 1.972656 8.976562 C 1.972656 8.433594 1.699219 7.992188 1.359375 7.992188 C 1.019531 7.992188 0.742188 8.433594 0.742188 8.976562 C 0.742188 9.523438 1.019531 9.964844 1.359375 9.964844 C 1.699219 9.964844 1.972656 9.523438 1.972656 8.976562 Z M 1.972656 8.976562 "/>
<path style=" stroke:none;fill-rule:nonzero;fill:rgb(0%,0%,0%);fill-opacity:1;" d="M 0.742188 8.976562 C 0.742188 9.53125 1.027344 9.964844 1.359375 9.964844 C 1.691406 9.964844 1.972656 9.53125 1.972656 8.976562 "/>
<path style=" stroke:none;fill-rule:nonzero;fill:rgb(74.901961%,38.039216%,1.568627%);fill-opacity:1;" d="M 14.332031 10.613281 L 13.640625 9.941406 L 13.179688 10.371094 L 12.742188 9.964844 L 12.308594 10.371094 L 11.871094 9.964844 L 11.4375 10.371094 L 11 9.964844 L 10.539062 10.371094 L 10.101562 9.964844 L 9.667969 10.371094 L 9.230469 9.964844 L 8.792969 10.371094 L 8.359375 9.964844 L 7.898438 10.371094 L 7.460938 9.941406 L 6.742188 10.613281 Z M 14.332031 10.613281 "/>
<path style=" stroke:none;fill-rule:nonzero;fill:rgb(100%,67.843137%,25.098039%);fill-opacity:1;" d="M 6.949219 7.488281 L 14.101562 7.488281 L 7.742188 7.777344 Z M 6.949219 7.488281 "/>
<path style=" stroke:none;fill-rule:nonzero;fill:rgb(100%,63.921569%,24.313725%);fill-opacity:1;" d="M 14.332031 7.679688 L 15.382812 8.761719 L 14.207031 8.328125 Z M 14.332031 7.679688 "/>
<path style=" stroke:none;fill-rule:nonzero;fill:rgb(74.901961%,38.039216%,1.568627%);fill-opacity:1;" d="M 1.308594 10.132812 C 1.691406 10.851562 2.5625 11.503906 3.589844 11.503906 C 4.617188 11.503906 5.460938 10.851562 5.871094 10.132812 Z M 1.308594 10.132812 "/>
<path style=" stroke:none;fill-rule:nonzero;fill:rgb(94.901961%,57.254902%,20%);fill-opacity:1;" d="M 10.308594 5.566406 C 10.308594 5.710938 10.207031 5.804688 10.050781 5.804688 C 9.898438 5.804688 9.792969 5.710938 9.792969 5.566406 L 9.792969 2.441406 C 9.792969 2.296875 9.898438 2.199219 10.050781 2.199219 C 10.207031 2.199219 10.308594 2.296875 10.308594 2.441406 Z M 10.308594 5.566406 "/>
<path style=" stroke:none;fill-rule:nonzero;fill:rgb(94.901961%,57.254902%,20%);fill-opacity:1;" d="M 12.332031 5.925781 C 12.230469 6.023438 12.050781 6.023438 11.949219 5.925781 C 11.847656 5.828125 11.847656 5.660156 11.949219 5.566406 L 14.179688 3.472656 C 14.28125 3.378906 14.460938 3.378906 14.5625 3.472656 C 14.667969 3.570312 14.667969 3.738281 14.5625 3.835938 Z M 12.332031 5.925781 "/>
<path style=" stroke:none;fill-rule:nonzero;fill:rgb(94.901961%,57.254902%,20%);fill-opacity:1;" d="M 7.769531 5.925781 C 7.871094 6.023438 8.050781 6.023438 8.152344 5.925781 C 8.257812 5.828125 8.257812 5.660156 8.152344 5.566406 L 5.921875 3.472656 C 5.820312 3.378906 5.640625 3.378906 5.539062 3.472656 C 5.4375 3.570312 5.4375 3.738281 5.539062 3.835938 Z M 7.769531 5.925781 "/>
</g>
</svg>
