<?xml version="1.0" encoding="UTF-8"?>
<svg xmlns="http://www.w3.org/2000/svg" xmlns:xlink="http://www.w3.org/1999/xlink" width="16pt" height="15pt" viewBox="0 0 16 15" version="1.1">
<g id="surface1">
<path style=" stroke:none;fill-rule:nonzero;fill:rgb(0%,0%,0%);fill-opacity:1;" d="M 15.304688 6.53125 C 15.296875 6.527344 15.285156 6.523438 15.277344 6.519531 L 13.378906 5.753906 C 13.269531 5.707031 13.144531 5.707031 13.035156 5.746094 L 11.898438 6.167969 L 10.757812 5.746094 C 10.652344 5.707031 10.535156 5.707031 10.425781 5.746094 L 9.289062 6.167969 L 8.148438 5.746094 C 8.042969 5.707031 7.925781 5.707031 7.820312 5.746094 L 6.992188 6.050781 C 6.398438 4.847656 5.117188 4.0625 3.664062 4.0625 C 1.644531 4.0625 0 5.605469 0 7.5 C 0 9.394531 1.644531 10.9375 3.664062 10.9375 C 5.175781 10.9375 6.5 10.089844 7.058594 8.800781 L 14.71875 8.800781 C 15.425781 8.800781 16 8.261719 16 7.601562 C 16 7.148438 15.734375 6.738281 15.304688 6.53125 Z M 14.71875 7.957031 L 6.742188 7.957031 C 6.542969 7.957031 6.371094 8.078125 6.3125 8.257812 C 5.957031 9.355469 4.890625 10.09375 3.664062 10.09375 C 2.140625 10.09375 0.898438 8.929688 0.898438 7.5 C 0.898438 6.070312 2.140625 4.90625 3.664062 4.90625 C 4.882812 4.90625 5.945312 5.636719 6.308594 6.726562 C 6.34375 6.839844 6.429688 6.929688 6.542969 6.980469 C 6.65625 7.03125 6.785156 7.035156 6.902344 6.992188 L 7.984375 6.59375 L 9.125 7.015625 C 9.230469 7.054688 9.347656 7.054688 9.453125 7.015625 L 10.59375 6.59375 L 11.730469 7.015625 C 11.835938 7.054688 11.957031 7.054688 12.0625 7.015625 L 13.191406 6.597656 L 14.902344 7.289062 C 15.023438 7.351562 15.101562 7.46875 15.101562 7.601562 C 15.101562 7.796875 14.929688 7.957031 14.71875 7.957031 Z M 14.71875 7.957031 "/>
<path style=" stroke:none;fill-rule:nonzero;fill:rgb(0%,0%,0%);fill-opacity:1;" d="M 2.945312 6.402344 C 2.296875 6.402344 1.769531 6.894531 1.769531 7.5 C 1.769531 8.105469 2.296875 8.597656 2.945312 8.597656 C 3.589844 8.597656 4.117188 8.105469 4.117188 7.5 C 4.117188 6.894531 3.589844 6.402344 2.945312 6.402344 Z M 2.945312 7.753906 C 2.792969 7.753906 2.671875 7.640625 2.671875 7.5 C 2.671875 7.359375 2.792969 7.246094 2.945312 7.246094 C 3.09375 7.246094 3.214844 7.359375 3.214844 7.5 C 3.214844 7.640625 3.09375 7.753906 2.945312 7.753906 Z M 2.945312 7.753906 "/>
</g>
</svg>
